# xmcd
# 
# Track frame offsets:
#     150
#     22696
#     36148
#     52178
#     90647
#     121921
#     142710
#     165364
# 
# Disc length: 2612
# 
# Revision: 4
# Processed by: cddbd v1.5.2PL0 Copyright (c) Steve Scherf et al.
# Submitted via: fre:ac v1.0.17
# 
DISCID=550a3208
DTITLE=カルメン・マキ／ブルース・クリエイション - カルメン・マキ／ブルース・クリエイション [SHM-CD]
DYEAR=1971
DGENRE=Rock
TTITLE0=アンダースタンド
TTITLE1=アンド・ユー
TTITLE2=ロード、アイ・キャント・ビー・ゴーイング・ノー・モア
TTITLE3=空しい心
TTITLE4=母のない子
TTITLE5=今日を生きられない
TTITLE6=ミーン・オールド・ブギー
TTITLE7=セント・ジェイムス病院
EXTD=
EXTT0=
EXTT1=
EXTT2=
EXTT3=
EXTT4=
EXTT5=
EXTT6=
EXTT7=
PLAYORDER=
